<?xml version="1.0" encoding="UTF-8" standalone="no"?>
<!DOCTYPE svg PUBLIC "-//W3C//DTD SVG 1.1//EN" "http://www.w3.org/Graphics/SVG/1.1/DTD/svg11.dtd">
<!-- Generated by Microsoft Visio, SVG Export banner.svg Page-1 -->
<svg xmlns="http://www.w3.org/2000/svg" xmlns:xlink="http://www.w3.org/1999/xlink" xmlns:ev="http://www.w3.org/2001/xml-events"
		xmlns:v="http://schemas.microsoft.com/visio/2003/SVGExtensions/" width="8.27813in" height="2.1364in"
		viewBox="0 0 596.026 153.821" xml:space="preserve" color-interpolation-filters="sRGB" class="st9">
	<v:documentProperties v:langID="2070" v:viewMarkup="false"/>

	<style type="text/css">
	<![CDATA[
		.st1 {fill:#0055aa;stroke:none;stroke-linecap:round;stroke-linejoin:round;stroke-width:0.75}
		.st2 {fill:none;stroke:none;stroke-linecap:round;stroke-linejoin:round;stroke-width:0.75}
		.st3 {fill:#ffffff;font-family:Poppins Light;font-size:4.99999em;font-weight:bold;letter-spacing:0.0816668em}
		.st4 {baseline-shift:29.9998%;font-size:0.599996em;letter-spacing:0.136112em}
		.st5 {fill:#ffffff;font-family:Poppins Light;font-size:1.5em;letter-spacing:0.166667em}
		.st6 {fill:#ffffff;fill-opacity:0.7;stroke:none;stroke-linecap:round;stroke-linejoin:round;stroke-width:0.25}
		.st7 {fill:#ffffff;fill-opacity:0.8;stroke:none;stroke-linecap:round;stroke-linejoin:round;stroke-width:0.25}
		.st8 {fill:#ffffff;fill-opacity:0.52;stroke:none;stroke-linecap:round;stroke-linejoin:round;stroke-width:0.25}
		.st9 {fill:none;fill-rule:evenodd;font-size:12px;overflow:visible;stroke-linecap:square;stroke-miterlimit:3}
	]]>
	</style>

	<g v:mID="0" v:index="1" v:groupContext="foregroundPage">
		<title>Page-1</title>
		<v:pageProperties v:drawingScale="0.0393701" v:pageScale="0.0393701" v:drawingUnits="24" v:shadowOffsetX="4.25197"
				v:shadowOffsetY="-4.25197"/>
		<g id="shape117-1" v:mID="117" v:groupContext="shape" transform="translate(0.375,-0.375)">
			<title>Sheet.117</title>
			<rect x="0" y="0.750008" width="595.276" height="153.071" class="st1"/>
		</g>
		<g id="group142-3" transform="translate(18.375,-8.87894)" v:mID="142" v:groupContext="group">
			<title>Sheet.142</title>
			<g id="group122-4" v:mID="122" v:groupContext="group">
				<title>Sheet.122</title>
				<g id="shape116-5" v:mID="116" v:groupContext="shape" transform="translate(0,-8.50396)">
					<title>Sheet.116</title>
					<desc>SMACD 22</desc>
					<v:textBlock v:margins="rect(4,4,4,4)" v:tabSpace="42.5197"/>
					<v:textRect cx="167.244" cy="108.467" width="334.49" height="90.7086"/>
					<rect x="0" y="63.1122" width="334.488" height="90.7086" class="st2"/>
					<text x="4" y="126.47" class="st3" v:langID="1033"><v:paragraph/><v:tabList/>SMACD <tspan dy="-0.084em"
								class="st4" v:baseFontSize="60">22</tspan></text>				</g>
				<g id="shape119-9" v:mID="119" v:groupContext="shape" transform="translate(2.6929,-1.41729)">
					<title>Sheet.119</title>
					<desc>XX-XX June, Sardinia, Italy</desc>
					<v:textBlock v:margins="rect(4,4,4,4)" v:tabSpace="42.5197"/>
					<v:textRect cx="178.583" cy="141.624" width="357.17" height="24.3935"/>
					<rect x="0" y="129.427" width="357.165" height="24.3935" class="st2"/>
					<text x="4" y="147.02" class="st5" v:langID="1033"><v:paragraph/><v:tabList/>XX-XX June, Sardinia, Italy</text>				</g>
			</g>
			<g id="group134-12" transform="translate(234.567,-32.5984)" v:mID="134" v:groupContext="group">
				<title>Sheet.134</title>
				<g id="shape131-13" v:mID="131" v:groupContext="shape" transform="translate(0.740824,-7.0866)">
					<title>Sheet.131</title>
					<path d="M0 150.38 C0.26 150.21 0.91 149.35 2.16 148.61 C3.46 147.84 5.4 147.2 7 146.72 C10.66 145.62 12.52 145.39
								 15.58 145.33 C19.36 145.26 24.98 145.46 27.65 145.82 C30.98 146.42 31.79 146.58 32.57 146.74 C38.75
								 148.05 43.06 149.63 48.68 150.05 C52.15 150.31 56.13 150.12 58.8 149.84 C60.98 149.61 62.28 149.32
								 65.67 148.38 C67.29 147.92 69.39 147.32 70.63 147.06 C75.45 146.04 67.33 150.16 62.58 151.9 C61.2
								 152.41 60.1 152.71 57.4 153.1 C55.41 153.39 52.54 153.73 49.8 153.82 C44.89 153.98 40.42 153.33
								 36.78 152.6 C33.35 151.91 30.66 151.15 27.44 150.42 C22.9 149.4 17.3 148.46 10.87 148.58 C6.96 148.65
								 2.73 149.12 0 150.38 Z" class="st6"/>
				</g>
				<g id="shape132-15" v:mID="132" v:groupContext="shape" transform="translate(7.93702,0.574685)">
					<title>Sheet.132</title>
					<path d="M0 148.08 C0.3 147.79 1.04 146.36 2.47 145.13 C3.95 143.84 6.17 142.78 8 141.98 C12.19 140.15 14.31
								 139.76 17.81 139.66 C22.13 139.54 28.56 139.88 31.61 140.48 C35.42 141.47 36.34 141.74 37.23 142.01
								 C44.3 144.19 49.22 146.84 55.65 147.53 C59.62 147.96 64.17 147.65 67.22 147.18 C69.71 146.8 71.2
								 146.32 75.07 144.74 C76.93 143.99 79.33 142.98 80.75 142.55 C86.26 140.85 76.97 147.72 71.54 150.62
								 C69.96 151.46 68.71 151.97 65.62 152.62 C63.34 153.11 60.06 153.67 56.93 153.82 C51.32 154.09 46.2
								 153.01 42.04 151.79 C38.12 150.64 35.05 149.36 31.37 148.15 C26.18 146.45 19.78 144.88 12.43 145.08
								 C7.95 145.2 3.12 145.99 0 148.08 Z" class="st7"/>
				</g>
				<g id="shape133-17" v:mID="133" v:groupContext="shape" transform="translate(24.6614,-1.7053E-13)">
					<title>Sheet.133</title>
					<path d="M0 147.65 C0.33 147.33 1.15 145.79 2.72 144.47 C4.35 143.09 6.79 141.94 8.8 141.08 C13.41 139.11 15.75
								 138.69 19.59 138.58 C24.35 138.45 31.42 138.82 34.78 139.46 C38.98 140.54 39.99 140.82 40.97 141.12
								 C48.75 143.46 54.17 146.31 61.23 147.06 C65.61 147.52 70.61 147.18 73.97 146.68 C76.7 146.27 78.34
								 145.75 82.61 144.05 C84.65 143.24 87.29 142.16 88.85 141.69 C94.91 139.87 84.7 147.26 78.72 150.38
								 C76.98 151.28 75.6 151.83 72.21 152.53 C69.7 153.05 66.09 153.66 62.65 153.82 C56.47 154.11 50.84
								 152.95 46.26 151.63 C41.95 150.4 38.57 149.02 34.51 147.72 C28.81 145.89 21.76 144.2 13.68 144.42
								 C8.75 144.55 3.44 145.39 0 147.65 Z" class="st8"/>
				</g>
			</g>
		</g>
	</g>
</svg>
